<svg t="1686726838258" class="icon" viewBox="0 0 1024 1024" version="1.1" xmlns="http://www.w3.org/2000/svg" p-id="4564" width="1920" height="1920">
  <path d="M256 298.666667v426.666666H85.333333V298.666667h170.666667z m682.666667 0v426.666666h-170.666667V298.666667h170.666667z" fill="#E9FF5B" p-id="4565"></path>
  <path d="M853.333333 256a128 128 0 0 1 128 128v256a128 128 0 0 1-128 128H170.666667a128 128 0 0 1-128-128V384a128 128 0 0 1 128-128h682.666666z m-597.333333 42.666667H170.666667a85.333333 85.333333 0 0 0-85.333334 85.333333v256a85.333333 85.333333 0 0 0 85.333334 85.333333h85.333333V298.666667z m469.333333 0H298.666667v426.666666h426.666666V298.666667z m128 0h-85.333333v426.666666h85.333333a85.333333 85.333333 0 0 0 85.333334-85.333333V384a85.333333 85.333333 0 0 0-85.333334-85.333333zM533.333333 661.333333a21.333333 21.333333 0 0 1 0 42.666667h-42.666666a21.333333 21.333333 0 0 1 0-42.666667h42.666666z m320-149.333333a42.666667 42.666667 0 1 1 0 85.333333 42.666667 42.666667 0 0 1 0-85.333333zM170.666667 554.666667a21.333333 21.333333 0 1 1 0 42.666666 21.333333 21.333333 0 0 1 0-42.666666z m42.666666-42.666667a21.333333 21.333333 0 1 1 0 42.666667 21.333333 21.333333 0 0 1 0-42.666667z m-85.333333 0a21.333333 21.333333 0 1 1 0 42.666667 21.333333 21.333333 0 0 1 0-42.666667z m42.666667-42.666667a21.333333 21.333333 0 1 1 0 42.666667 21.333333 21.333333 0 0 1 0-42.666667z m682.666666-42.666666a21.333333 21.333333 0 1 1 0 42.666666 21.333333 21.333333 0 0 1 0-42.666666zM170.666667 341.333333a42.666667 42.666667 0 1 1 0 85.333334 42.666667 42.666667 0 0 1 0-85.333334z m725.333333 42.666667a21.333333 21.333333 0 1 1 0 42.666667 21.333333 21.333333 0 0 1 0-42.666667z m-85.333333 0a21.333333 21.333333 0 1 1 0 42.666667 21.333333 21.333333 0 0 1 0-42.666667z m42.666666-42.666667a21.333333 21.333333 0 1 1 0 42.666667 21.333333 21.333333 0 0 1 0-42.666667z" fill="#4E4E4E" p-id="4566" data-spm-anchor-id="a313x.7781069.0.i8" class=""></path>
</svg>